Race.With.The.Devil.1975.XviD-NvadR 
http://www.imdb.com/title/tt0073600/

Frank and Roger and their wives take off for 
Colorado in a recreational vehicle, looking 
forward to some skiing and dirt biking. While 
camping en route, they witness a satanic ritual 
sacrifice, but the local sheriff finds no evidence 
to support their claims and urges them to continue 
on their vacation. On the way, however, they find 
themselves repeatedly attacked by cult members, and 
they take measures to defend themselves. 


----------- SCREENSHOTS ----------- 
http://www.uploadup.com/di-JZAD.jpg
 
http://www.uploadup.com/di-XB1D.jpg
 
http://www.uploadup.com/di-T11N.jpg
 
http://www.uploadup.com/di-MBUK.jpg
 
http://www.uploadup.com/di-5D3K.jpg
 
http://www.uploadup.com/di-X8AV.jpg
-----------------------------------

General

Complete name                    : Race.With.The.Devil.1975.XviD-NvadR
Format        [/img]             : AVI
Format/Info                      : Audio Video Interleave
File size                        : 700 MiB
Duration                         : 1h 28mn
Overall bit rate                 : 1 108 Kbps
Writing application              : VirtualDubMod 1.5.10.2 (build 2542/release)
Writing library                  : VirtualDubMod build 2542/release

Video

Format                           : MPEG-4 Visual
Format profile                   : Advanced Simple@L5
Format settings, BVOP            : 2
Format settings, QPel            : No
Format settings, GMC             : No warppoints
Format settings, Matrix          : Default (H.263)
Muxing mode                      : Packed bitstream
Codec ID                         : XVID
Codec ID/Hint                    : XviD
Duration                         : 1h 28mn
Bit rate                         : 987 Kbps
Width                            : 640 pixels
Height                           : 360 pixels
Display aspect ratio             : 16:9
Frame rate                       : 23.976 fps
Color space                      : YUV
Chroma subsampling               : 4:2:0
Bit depth                        : 8 bits
Scan type                        : Progressive
Compression mode                 : Lossy
Bits/(Pixel*Frame)               : 0.179
Stream size                      : 623 MiB (89%)
Writing library                  : XviD 64

Audio

Audio Language                   : English
Format                           : AC-3
Format/Info                      : Audio Coding 3
Mode extension                   : CM (complete main)
Codec ID                         : 2000
Duration                         : 1h 28mn
Bit rate mode                    : Constant
Bit rate                         : 112 Kbps
Channel(s)                       : 2 channels
Channel positions                : Front: L R
Sampling rate                    : 48.0 KHz
Bit depth                        : 16 bits
Compression mode                 : Lossy
Stream size                      : 70.7 MiB (10%)
Alignment                        : Aligned on interleaves
Interleave, duration             : 42 ms (1.00 video frame)
Interleave, preload duration     : 512 ms

NO SUBTITLES INCLUDED

------------- Real Time Stats -------------- 
http://torrent-stats.info/dc19/17f52e24a.png